<svg width="954" height="231" viewBox="0 0 954 231" fill="none" xmlns="http://www.w3.org/2000/svg">
<g id="crayonn">
<g id="Property 1=Default">
<path id="Rectangle 2" d="M20 43.5C20 37.9771 24.4772 33.5 30 33.5H37V22C37 20.8954 37.8954 20 39 20H742.5C745.814 20 748.5 22.6863 748.5 26V33.5C748.5 33.5 850.926 61.2835 903.209 94.5695C910.829 99.4206 911.066 109.85 903.586 114.913C855.678 147.338 748.5 185.5 748.5 185.5V192C748.5 195.314 745.814 198 742.5 198H40C38.8954 198 38 197.105 38 196V185.5H30C24.4772 185.5 20 181.023 20 175.5V43.5Z" fill="#E8E273"/>
</g>
<g id="Property 1=Default_2">
<path id="Rectangle 4" d="M38 23C38 21.8954 38.8954 21 40 21H731C732.105 21 733 21.8954 733 23V196C733 197.105 732.105 198 731 198H40C38.8954 198 38 197.105 38 196V23Z" fill="#F5F543"/>
</g>
<g id="Property 1=Default_3">
<path id="Rectangle 5" d="M38 24C38 22.3432 39.3431 21 41 21H61.5581C63.9059 21 65.5465 23.6702 64.7393 25.875C60.2562 38.1199 53.1184 73.4105 87.0127 131.5C101.264 162.485 98.0912 188.21 96.6829 195.756C96.4333 197.093 95.2554 198 93.8949 198H41C39.3431 198 38 196.657 38 195V24Z" fill="#283747"/>
</g>
<g id="Property 1=Default_4">
<path id="Rectangle 6" d="M131 195C131 196.657 129.657 198 128 198H107.442C105.094 198 103.453 195.33 104.261 193.125C108.744 180.88 115.882 145.589 81.9873 87.5C67.7356 56.515 70.9088 30.7897 72.3171 23.2444C72.5667 21.907 73.7446 21 75.1051 21H128C129.657 21 131 22.3431 131 24V109.5V195Z" fill="#283747"/>
</g>
<g id="Property 1=Default_5">
<path id="Rectangle 7" d="M733 194C733 195.657 731.657 197 730 197H709.442C707.094 197 705.453 194.33 706.261 192.125C710.744 179.88 717.882 144.589 683.987 86.5C669.736 55.515 672.909 29.7897 674.317 22.2444C674.567 20.907 675.745 20 677.105 20H730C731.657 20 733 21.3431 733 23V108.5V194Z" fill="#283747"/>
</g>
<g id="Property 1=Default_6">
<path id="Rectangle 8" d="M636 23C636 21.3431 637.343 20 639 20H659.558C661.906 20 663.547 22.6702 662.739 24.875C658.256 37.1199 651.118 72.4105 685.013 130.5C699.264 161.485 696.091 187.21 694.683 194.756C694.433 196.093 693.255 197 691.895 197H639C637.343 197 636 195.657 636 194V108.5V23Z" fill="#283747"/>
</g>
</g>
</svg>
