<svg xmlns="http://www.w3.org/2000/svg" xmlns:xlink="http://www.w3.org/1999/xlink" viewBox="0,0,256,256" width="180px" height="180px" fill-rule="nonzero"><g fill="none" fill-rule="nonzero" stroke="none" stroke-width="none" stroke-linecap="none" stroke-linejoin="none" stroke-miterlimit="10" stroke-dasharray="" stroke-dashoffset="0" font-family="none" font-weight="none" font-size="none" text-anchor="none" style="mix-blend-mode: normal"><g transform="scale(2.56,2.56)"><path d="M16.5,89c-5.79,0 -10.5,-4.71 -10.5,-10.5v-53c0,-5.79 4.71,-10.5 10.5,-10.5h21.065c2.429,0 4.799,0.85 6.674,2.394l5.593,4.606l28.168,-1c5.28,0 9.663,3.918 10.393,9l2.107,1c1.961,0 3.798,0.872 5.038,2.393c1.241,1.523 1.724,3.497 1.329,5.418l-8.888,41.086c-0.514,5.059 -5.118,9.103 -10.479,9.103z" fill="#000000" stroke="none" stroke-width="1" stroke-linecap="butt" stroke-linejoin="miter" opacity="0.35"></path><path d="M14.5,87c-5.79,0 -10.5,-4.71 -10.5,-10.5v-53c0,-5.79 4.71,-10.5 10.5,-10.5h21.065c2.429,0 4.799,0.85 6.674,2.394l5.593,4.606h27.668c5.28,0 9.663,3.918 10.393,9h2.607c1.961,0 3.798,0.872 5.038,2.393c1.241,1.523 1.724,3.497 1.329,5.418l-8.888,41.086c-0.514,5.059 -5.118,9.103 -10.479,9.103z" fill="#f2f2f2" stroke="none" stroke-width="1" stroke-linecap="butt" stroke-linejoin="miter"></path><path d="M10.5,76.5v-53c0,-2.209 1.791,-4 4,-4h21.065c0.928,0 1.827,0.322 2.543,0.912l6.284,5.175c0.716,0.59 1.615,0.912 2.543,0.912h28.565c2.209,0 4,1.791 4,4v46c0,2.209 -1.791,4 -4,4h-61c-2.209,0.001 -4,-1.79 -4,-3.999z" fill="#ef30a2" stroke="none" stroke-width="1" stroke-linecap="butt" stroke-linejoin="miter"></path><path d="M13,80h65l10,-43h-66z" fill="#ff71c1" stroke="none" stroke-width="1" stroke-linecap="butt" stroke-linejoin="miter"></path><path d="M79.5,35.5v-5c0,-2.209 -1.791,-4 -4,-4h-28.565c-0.928,0 -1.827,-0.323 -2.543,-0.912l-6.284,-5.175c-0.716,-0.59 -1.615,-0.912 -2.543,-0.912h-21.065c-2.209,0 -4,1.791 -4,4v53c0,2.209 1.791,4 4,4h61c2.209,0 4,-1.791 4.025,-3.494l8.231,-37.9c0.384,-1.861 -1.038,-3.606 -2.938,-3.606h-5.318z" fill="none" stroke="#6e3949" stroke-width="3" stroke-linecap="round" stroke-linejoin="round"></path></g></g></svg>