<svg width="250" height="150" viewBox="0 0 250 150" fill="none" xmlns="http://www.w3.org/2000/svg">
<path d="M0 32.8553C0 30.0938 2.23858 27.8553 5 27.8553H71.7213H137.807H161.885V9.99999C161.885 4.47714 166.362 0 171.885 0H239.145C245.14 0 250 4.86007 250 10.8553V145C250 147.761 247.761 150 245 150H5C2.23857 150 0 147.761 0 145V32.8553Z" fill="#FBF69A"/>
<path d="M0 47C0 44.2386 2.23858 42 5 42H71.7213H137.807H161.885H246C248.209 42 250 43.7909 250 46V145C250 147.761 247.761 150 245 150H5C2.23857 150 0 147.761 0 145V47Z" fill="#F9EF29"/>
</svg>
