<svg xmlns="http://www.w3.org/2000/svg" xmlns:xlink="http://www.w3.org/1999/xlink" viewBox="0,0,256,256" width="180px" height="180px" fill-rule="nonzero"><defs><linearGradient x1="-7.018" y1="9.308" x2="39.387" y2="33.533" gradientUnits="userSpaceOnUse" id="color-1"><stop offset="0" stop-color="#fa9117"></stop><stop offset="0.909" stop-color="#e1892d"></stop></linearGradient><linearGradient x1="5.851" y1="9.254" x2="18.601" y2="27.39" gradientUnits="userSpaceOnUse" id="color-2"><stop offset="0" stop-color="#f3f3fe"></stop><stop offset="0.909" stop-color="#e4e3e2"></stop></linearGradient><linearGradient x1="2" y1="19" x2="22" y2="19" gradientUnits="userSpaceOnUse" id="color-3"><stop offset="0" stop-color="#f3f3fe"></stop><stop offset="0.909" stop-color="#e4e3e2"></stop></linearGradient><linearGradient x1="16.865" y1="39.287" x2="44.965" y2="39.792" gradientUnits="userSpaceOnUse" id="color-4"><stop offset="0" stop-color="#e36d17"></stop><stop offset="0.464" stop-color="#d7661e"></stop></linearGradient><linearGradient x1="-4.879" y1="12.764" x2="35.968" y2="30.778" gradientUnits="userSpaceOnUse" id="color-5"><stop offset="0.34" stop-color="#ffd9b2"></stop><stop offset="0.485" stop-color="#ffcfad"></stop><stop offset="0.652" stop-color="#ffc79f"></stop><stop offset="0.828" stop-color="#fec189"></stop><stop offset="1" stop-color="#feb66b"></stop></linearGradient><radialGradient cx="37.836" cy="49.317" r="53.875" gradientUnits="userSpaceOnUse" id="color-6"><stop offset="0.199" stop-color="#fe8132"></stop><stop offset="0.601" stop-color="#fcae67"></stop><stop offset="0.68" stop-color="#fdc275"></stop><stop offset="0.886" stop-color="#fec296"></stop><stop offset="1" stop-color="#ffdca2"></stop></radialGradient></defs><g fill="none" fill-rule="nonzero" stroke="none" stroke-width="1" stroke-linecap="butt" stroke-linejoin="miter" stroke-miterlimit="10" stroke-dasharray="" stroke-dashoffset="0" font-family="none" font-weight="none" font-size="none" text-anchor="none" style="mix-blend-mode: normal"><g transform="scale(5.33333,5.33333)"><path d="M44.5,41h-41c-1.381,0 -2.5,-1.119 -2.5,-2.5v-31c0,-1.381 1.119,-2.5 2.5,-2.5h11.597c1.519,0 2.955,0.69 3.904,1.877l2.499,3.123h23c1.381,0 2.5,1.119 2.5,2.5v26c0,1.381 -1.119,2.5 -2.5,2.5z" fill="url(#color-1)"></path><path d="M2,25h20v-14h-18c-1.105,0 -2,0.895 -2,2z" fill="url(#color-2)"></path><path d="M2,26h20v-14h-18c-1.105,0 -2,0.895 -2,2z" fill="url(#color-3)"></path><path d="M1,37.875v0.625c0,1.381 1.119,2.5 2.5,2.5h41c1.381,0 2.5,-1.119 2.5,-2.5v-0.625z" fill="url(#color-4)"></path><path d="M44.5,11h-23l-1.237,0.824c-1.149,0.767 -2.5,1.176 -3.882,1.176h-12.881c-1.381,0 -2.5,1.119 -2.5,2.5v22c0,1.381 1.119,2.5 2.5,2.5h41c1.381,0 2.5,-1.119 2.5,-2.5v-24c0,-1.381 -1.119,-2.5 -2.5,-2.5z" fill="url(#color-5)"></path><path d="M44.5,40h-41c-1.381,0 -2.5,-1.119 -2.5,-2.5v-21c0,-1.381 1.119,-2.5 2.5,-2.5h13.256c1.382,0 2.733,-0.409 3.883,-1.176l1.236,-0.824h22.625c1.381,0 2.5,1.119 2.5,2.5v23c0,1.381 -1.119,2.5 -2.5,2.5z" fill="url(#color-6)"></path></g></g></svg>