<svg width="800" height="166" viewBox="0 0 800 166" fill="none" xmlns="http://www.w3.org/2000/svg">
<path d="M798.543 152.099L785.316 152.01L785.225 165.605L156.737 161.364C153.975 161.345 151.752 159.091 151.77 156.33L151.803 151.547C151.818 149.296 150.343 147.315 148.182 146.686C125.063 139.961 -0.140084 102.417 0.0232563 78.2129C0.186149 54.075 125.162 23.4957 148.858 17.9145C151.119 17.3818 152.722 15.376 152.737 13.0527L152.783 6.33353C152.801 3.57217 155.055 1.34875 157.816 1.36738L786.304 5.60814L786.198 21.2941L799.425 21.3833L798.543 152.099Z" fill="#05B519"/>
<path d="M775.452 165.539L159.466 161.382L160.545 1.38581L776.531 5.54222L775.452 165.539Z" fill="#94FC7D"/>
<path d="M766.452 165.478L748.452 165.356L749.532 5.36003L767.531 5.48148L766.452 165.478Z" fill="#4A4444"/>
<rect x="739.453" y="165.296" width="19" height="160" transform="rotate(-179.613 739.453 165.296)" fill="#4A4444"/>
<rect x="193.465" y="161.612" width="18" height="160" transform="rotate(-179.613 193.465 161.612)" fill="#4A4444"/>
<rect x="223.464" y="161.814" width="18" height="160" transform="rotate(-179.613 223.464 161.814)" fill="#4A4444"/>
</svg>
