<svg width="740" height="150" viewBox="0 0 740 150" fill="none" xmlns="http://www.w3.org/2000/svg">
<g id="GCrayon">
<g id="Propiedad 1=Rectangle 1">
<path id="Rectangle 1" d="M720 26.5H711.5V20H141V26.5C141 26.5 20 57.5 20 75C20 92.5 141 124 141 124V130H711.5V121.5H720V26.5Z" fill="#228B22"/>
</g>
<g id="Propiedad 1=Rectangle 2">
<rect id="Rectangle 2" width="554" height="110" transform="matrix(-1 0 0 1 703 20)" fill="#4DB544"/>
</g>
<g id="Propiedad 1=Rectangle 3">
<rect id="Rectangle 3" width="16" height="110" transform="matrix(-1 0 0 1 695 20)" fill="#4A4444"/>
</g>
<g id="Propiedad 1=Rectangle 4">
<rect id="Rectangle 4" width="16" height="110" transform="matrix(-1 0 0 1 667 20)" fill="#4A4444"/>
</g>
<g id="Propiedad 1=Rectangle 5">
<rect id="Rectangle 5" width="16" height="110" transform="matrix(-1 0 0 1 174 20)" fill="#4A4444"/>
</g>
<g id="Propiedad 1=Rectangle 6">
<rect id="Rectangle 6" width="16" height="110" transform="matrix(-1 0 0 1 201 20)" fill="#4A4444"/>
</g>
</g>
</svg>
