<svg xmlns="http://www.w3.org/2000/svg" xmlns:xlink="http://www.w3.org/1999/xlink" viewBox="0,0,256,256" width="180px" height="180px" fill-rule="nonzero"><g fill="none" fill-rule="nonzero" stroke="none" stroke-width="none" stroke-linecap="none" stroke-linejoin="none" stroke-miterlimit="10" stroke-dasharray="" stroke-dashoffset="0" font-family="none" font-weight="none" font-size="none" text-anchor="none" style="mix-blend-mode: normal"><g transform="scale(4,4)"><path d="M49,19.999v32.001h-36c-2.761,0 -5,-2.239 -5,-5v-32c0,-2.209 1.791,-4 4,-4h11.046c1.756,0 3.307,1.145 3.823,2.824l0.234,0.761c0.258,0.839 1.033,1.412 1.911,1.412l15.986,0.003c2.21,0 4,1.79 4,3.999z" fill="#ca0000" stroke="none" stroke-width="1" stroke-linecap="butt" stroke-linejoin="miter"></path><ellipse cx="32" cy="60.993" rx="22.563" ry="3" fill="#000000" stroke="none" stroke-width="1" stroke-linecap="butt" stroke-linejoin="miter" opacity="0.3"></ellipse><path d="M55.22,23h-30.52c-3.319,0 -6.182,2.331 -6.855,5.582l-4.845,23.418h36.3c3.319,0 6.182,-2.331 6.855,-5.582l3.674,-17.758c0.604,-2.921 -1.626,-5.66 -4.609,-5.66z" fill="#ff2929" stroke="none" stroke-width="1" stroke-linecap="butt" stroke-linejoin="miter"></path><path d="M46,23h-21.3c-3.319,0 -6.182,2.331 -6.855,5.582l-2.07,10.008c0,0 0,0 0.001,0c0.342,0.07 0.682,0.104 1.018,0.104c2.321,0 4.402,-1.626 4.892,-3.988l1.058,-5.112c0.19,-0.924 1.013,-1.594 1.956,-1.594h16.3c2.762,0 5,-2.238 5,-5z" fill="#ffffff" stroke="none" stroke-width="1" stroke-linecap="butt" stroke-linejoin="miter" opacity="0.3"></path><path d="M56.155,46.418l2.984,-14.424c0,0 0,0 -0.001,0c-2.711,-0.558 -5.35,1.181 -5.909,3.884l-1.971,9.526c-0.191,0.925 -1.014,1.596 -1.957,1.596h-10.301c-2.762,0 -5,2.238 -5,5h15.3c3.32,0 6.183,-2.331 6.855,-5.582z" fill="#000000" stroke="none" stroke-width="1" stroke-linecap="butt" stroke-linejoin="miter" opacity="0.15"></path><path d="M20.779,31.681l0.494,-2.39c0.334,-1.617 1.775,-2.791 3.427,-2.791h3.738" fill="none" stroke="#ffffff" stroke-width="3" stroke-linecap="round" stroke-linejoin="round"></path></g></g></svg>