<svg width="1440" height="123" viewBox="0 0 1440 123" fill="none" xmlns="http://www.w3.org/2000/svg">
<path d="M0 150H1440V33.9264C1440 33.9264 1390 5.14019 1314.5 5.14019C1239 5.14019 1180.25 33.9264 1180.25 33.9264C1180.25 33.9264 1139 5.14019 1049 5.14019C959 5.14019 920.5 33.9264 920.5 33.9264C920.5 33.9264 851.5 -1.22462 735 0.0329557C618.5 1.29053 551.5 33.9264 551.5 33.9264C551.5 33.9264 513 5.14019 413 5.14019C313 5.14019 275.75 33.9264 275.75 33.9264C275.75 33.9264 226.5 5.14019 130 5.14019C33.5 5.14019 0 33.9264 0 33.9264V150Z" fill="#F7F9F9"/>
</svg>
