<svg width="1440" height="148" viewBox="0 0 1440 148" fill="none" xmlns="http://www.w3.org/2000/svg">
<path d="M0 300H1440V67.8529C1440 67.8529 1390 10.2804 1314.5 10.2804C1239 10.2804 1180.25 67.8529 1180.25 67.8529C1180.25 67.8529 1139 10.2804 1049 10.2804C959 10.2804 920.5 67.8529 920.5 67.8529C920.5 67.8529 851.5 -2.44924 735 0.0659114C618.5 2.58106 551.5 67.8529 551.5 67.8529C551.5 67.8529 513 10.2804 413 10.2804C313 10.2804 275.75 67.8529 275.75 67.8529C275.75 67.8529 226.5 10.2804 130 10.2804C33.5 10.2804 0 67.8529 0 67.8529V300Z" fill="#F7F9F9"/>
</svg>
