<svg width="1440" height="159" viewBox="0 0 1440 159" fill="none" xmlns="http://www.w3.org/2000/svg">
<path d="M0 317H1440V71.6979C1440 71.6979 1390 10.8629 1314.5 10.8629C1239 10.8629 1180.25 71.6979 1180.25 71.6979C1180.25 71.6979 1139 10.8629 1049 10.8629C959 10.8629 920.5 71.6979 920.5 71.6979C920.5 71.6979 851.5 -2.58802 735 0.0696535C618.5 2.72733 551.5 71.6979 551.5 71.6979C551.5 71.6979 513 10.8629 413 10.8629C313 10.8629 275.75 71.6979 275.75 71.6979C275.75 71.6979 226.5 10.8629 130 10.8629C33.5 10.8629 0 71.6979 0 71.6979V317Z" fill="#F7F9F9"/>
</svg>
