<svg xmlns="http://www.w3.org/2000/svg" style="display: none;">

<symbol id="cloud" viewBox="0 0 1440 237">
<path d="M0 -135H1440V115C1440 115 1390 177 1314.5 177C1239 177 1180.25 115 1180.25 115C1180.25 115 1139 177 1049 177C959 177 920.5 115 920.5 115C920.5 115 851.5 190.709 735 188C618.5 185.291 551.5 115 551.5 115C551.5 115 513 177 413 177C313 177 275.75 115 275.75 115C275.75 115 226.5 177 130 177C33.5 177 0 115 0 115V-135Z" fill="#F6F6F6"/>
  </symbol>

  <symbol id="cloud-bottom" viewBox="0 0 1440 159" >
<path d="M0 317H1440V71.6979C1440 71.6979 1390 10.8629 1314.5 10.8629C1239 10.8629 1180.25 71.6979 1180.25 71.6979C1180.25 71.6979 1139 10.8629 1049 10.8629C959 10.8629 920.5 71.6979 920.5 71.6979C920.5 71.6979 851.5 -2.58802 735 0.0696535C618.5 2.72733 551.5 71.6979 551.5 71.6979C551.5 71.6979 513 10.8629 413 10.8629C313 10.8629 275.75 71.6979 275.75 71.6979C275.75 71.6979 226.5 10.8629 130 10.8629C33.5 10.8629 0 71.6979 0 71.6979V317Z" fill="#F7F9F9"/>

  </symbol>


</svg>