<svg width="93" height="104" viewBox="0 0 93 104" fill="none" xmlns="http://www.w3.org/2000/svg">
<path id="star" d="M52.8263 4.02268L64.376 37.5742C64.376 37.5742 86.4556 36.4771 90.0192 40.9796C93.5828 45.4821 69.7683 67.6422 69.7683 67.6422C69.7683 67.6422 84.105 94.6139 80.9153 100.606C77.7255 106.599 44.7067 86.3757 44.7067 86.3757C44.7067 86.3757 13.2161 102.774 9.76434 98.7834C6.31255 94.7924 20.3311 66.3757 20.3311 66.3757C20.3311 66.3757 0.446005 41.4332 3.03412 37.0883C5.62223 32.7434 28.0686 36.644 28.0686 36.644C28.0686 36.644 36.253 16.2925 42.5377 3.75909C48.8225 -8.77434 16.6866 59.6266 20.1564 59.7201C23.6261 59.8136 45.8324 11.5803 49.6035 13.3397C53.3747 15.0991 12.4625 91.1157 17.5781 89.007C22.6936 86.8982 52.4734 25.0527 55.6188 28.4588C58.7642 31.865 24.3217 88.6027 29.451 89.3111C34.5804 90.0196 57.4817 36.8204 61.0824 41.901C64.6831 46.9816 39.4776 79.5914 42.9307 81.3426C44.661 82.2201 65.4671 55.9626 74.1552 45.5615C79.9148 38.6662 62.5174 69.3355 54.9075 83.3122C51.0873 90.3286 68.2097 78.6647 68.2097 78.6647" stroke="#FFDA20" stroke-width="4"/>
</svg>
