<svg width="524" height="147" viewBox="0 0 524 147" fill="none" xmlns="http://www.w3.org/2000/svg">
<g id="YCrayon">
<g id="Property 1=Default">
<path id="Rectangle 2" d="M500 37.8946C500 32.6611 495.757 28.4185 490.524 28.4185V28.4185V22C490.524 20.8954 489.629 20 488.524 20H99.9242C96.6104 20 93.9241 22.6863 93.9241 26V28.4185C93.9241 28.4185 42.2178 44.1094 12.1007 63.5162C5.06586 68.0493 4.8712 77.5311 11.7653 82.2755C40.0653 101.751 93.9241 123.205 93.9241 123.205V125C93.9241 128.314 96.6104 131 99.9241 131H487.967C489.071 131 489.967 130.105 489.967 129V123.205V123.205C495.489 123.205 500 118.728 500 113.205V37.8946Z" fill="#CCC918"/>
</g>
<g id="Property 1=Default_2">
<path id="Rectangle 4" d="M486 23C486 21.8954 485.105 21 484 21H106C104.895 21 104 21.8954 104 23V129C104 130.105 104.895 131 106 131H484C485.105 131 486 130.105 486 129V23Z" fill="#FBE86E"/>
</g>
<g id="Property 1=Default_3">
<path id="Rectangle 5" d="M486 24C486 22.3431 484.657 21 483 21H475.142C472.864 21 471.205 23.5321 471.796 25.7314C474.18 34.6089 476.449 55.9641 459.043 89.6723C451.664 107.801 452.778 123.033 453.58 128.667C453.777 130.046 454.973 131 456.366 131H483C484.657 131 486 129.657 486 128V24Z" fill="#283747"/>
</g>
<g id="Property 1=Default_4">
<path id="Rectangle 8" d="M172 23C172 21.3431 170.657 20 169 20H157.859C155.458 20 153.742 22.8471 154.469 25.1349C157.385 34.3023 159.849 55.7299 138.508 89.2966C129.251 107.767 130.752 123.258 131.75 128.808C131.986 130.123 133.148 131 134.484 131H169C170.657 131 172 129.657 172 128V75.5V23Z" fill="#283747"/>
</g>
<g id="Property 1=Default_5">
<path id="Rectangle 6" d="M429 128C429 129.657 430.343 131 432 131H441.083C443.41 131 445.093 128.346 444.449 126.109C441.866 117.138 439.531 95.8361 458.408 62.3277C466.485 44.1379 465.234 28.8649 464.358 23.2765C464.146 21.9229 462.963 21 461.593 21H432C430.343 21 429 22.3431 429 24V76V128Z" fill="#283747"/>
</g>
<g id="rect">
<path id="Rectangle 6_2" d="M104 128C104 129.657 105.343 131 107 131H116.083C118.41 131 120.093 128.346 119.449 126.109C116.866 117.138 114.531 95.8361 133.408 62.3277C141.485 44.1379 140.234 28.8649 139.358 23.2765C139.146 21.9229 137.963 21 136.593 21H107C105.343 21 104 22.3431 104 24V76V128Z" fill="#283747"/>
</g>
</g>
</svg>
