<svg width="799" height="160" viewBox="0 0 799 160" fill="none" xmlns="http://www.w3.org/2000/svg">
<path d="M0 13.5948H13.2268L13.2268 0H641.729C644.491 0 646.729 2.23858 646.729 5V9.78308C646.729 12.0344 648.217 14.0052 650.383 14.6195C673.547 21.189 799 57.8867 799 82.0915C799 106.23 674.233 137.652 650.576 143.393C648.318 143.941 646.729 145.957 646.729 148.281V155C646.729 157.761 644.491 160 641.729 160H13.2268L13.2268 144.314H0V13.5948Z" fill="#F0D715"/>
<rect x="23" width="616" height="160" fill="#F5FFA0"/>
<path d="M32 0H50V160H32V0Z" fill="#4A4444"/>
<rect x="59" width="19" height="160" fill="#4A4444"/>
<rect x="605" width="18" height="160" fill="#4A4444"/>
<rect x="575" width="18" height="160" fill="#4A4444"/>
</svg>
