<svg width="150" height="740" viewBox="0 0 150 740" fill="none" xmlns="http://www.w3.org/2000/svg">
<g id="YCrayonUp">
<g clip-path="url(#clip0_23_24)">
<g id="Propiedad 1=Rectangle 1">
<path id="Rectangle 1" d="M123.5 720V711.5H130V141H123.5C123.5 141 92.5 20 75 20C57.5 20 26 141 26 141H20V711.5H28.5V720H123.5Z" fill="#F0D715"/>
</g>
<g id="Propiedad 1=Rectangle 2">
<rect id="Rectangle 2" width="554" height="110" transform="matrix(0 -1 -1 0 130 703)" fill="#F5FFA0"/>
</g>
<g id="Propiedad 1=Rectangle 3">
<rect id="Rectangle 3" width="16" height="110" transform="matrix(0 -1 -1 0 130 695)" fill="#4A4444"/>
</g>
<g id="Propiedad 1=Rectangle 4">
<rect id="Rectangle 4" width="16" height="110" transform="matrix(0 -1 -1 0 130 667)" fill="#4A4444"/>
</g>
<g id="Propiedad 1=Rectangle 5">
<rect id="Rectangle 5" width="16" height="110" transform="matrix(0 -1 -1 0 130 174)" fill="#4A4444"/>
</g>
<g id="Propiedad 1=Rectangle 6">
<rect id="Rectangle 6" width="16" height="110" transform="matrix(0 -1 -1 0 130 201)" fill="#4A4444"/>
</g>
</g>
</g>
<defs>
<clipPath id="clip0_23_24">
<rect width="740" height="150" rx="5" transform="matrix(0 -1 -1 0 150 740)" fill="white"/>
</clipPath>
</defs>
</svg>
